<?xml version="1.0" encoding="UTF-8"?>
<!DOCTYPE svg PUBLIC "-//W3C//DTD SVG 1.1//EN" "http://www.w3.org/Graphics/SVG/1.1/DTD/svg11.dtd">
<!-- Creator: CorelDRAW X6 -->
<svg xmlns="http://www.w3.org/2000/svg" xml:space="preserve" width="210mm" height="297mm" version="1.1" style="shape-rendering:geometricPrecision; text-rendering:geometricPrecision; image-rendering:optimizeQuality; fill-rule:evenodd; clip-rule:evenodd"
viewBox="0 0 21000 29700"
 xmlns:xlink="http://www.w3.org/1999/xlink">
 <defs>
  <style type="text/css">
   <![CDATA[
    .str0 {stroke:#FF7DBA;stroke-width:25.4;stroke-opacity:0.301961}
    .str1 {stroke:white;stroke-width:25.4;stroke-opacity:0.301961}
    .str2 {stroke:#FF7DBA;stroke-width:25.41;stroke-opacity:0.301961}
    .str3 {stroke:white;stroke-width:25.41;stroke-opacity:0.301961}
    .fil2 {fill:none}
    .fil1 {fill:none;fill-rule:nonzero}
    .fil0 {fill:#FF9BC9}
   ]]>
  </style>
 </defs>
 <g id="Layer_x0020_1">
  <metadata id="CorelCorpID_0Corel-Layer"/>
  <g id="_881721760">
   <rect class="fil0" x="822" y="751" width="11853" height="7112"/>
   <g>
    <g>
     <g>
      <path class="fil1 str0" d="M1372 1076l140 66c15,7 26,20 31,35 6,15 5,31 -2,46l0 1 -28 58 -10 21 80 38c15,7 26,20 31,35 6,15 5,31 -2,47l0 0 -56 119c-8,15 -20,26 -35,31 -15,5 -32,5 -47,-2l-79 -38 -10 22 -28 58c-8,15 -20,26 -35,31 -15,6 -32,5 -47,-2l-140 -66c-15,-7 -26,-20 -31,-35 -6,-15 -5,-31 2,-47l27 -58 11 -22 -80 -37c-15,-7 -26,-20 -31,-35 -6,-15 -5,-31 2,-47l56 -119 0 0c8,-15 20,-26 35,-31 15,-6 32,-5 47,2l79 38 10 -22 28 -58 0 0c8,-15 20,-26 35,-31 15,-6 32,-5 47,2z"/>
     </g>
     <g>
      <path class="fil1 str1" d="M1380 1060l139 66c15,8 26,21 32,35 5,15 5,32 -2,47l-1 1 -27 58 -10 21 79 37c15,8 26,21 32,35 5,15 5,32 -2,47l-1 1 -56 119c-7,15 -20,25 -35,31 -15,5 -31,5 -47,-3l-79 -37 -10 21 -28 59c-7,15 -20,26 -35,31 -15,5 -32,5 -47,-3l-139 -66c-16,-7 -27,-20 -32,-35 -5,-14 -5,-31 2,-46l28 -59 10 -21 -79 -38c-16,-7 -27,-20 -32,-35 -5,-14 -5,-31 2,-46l56 -119 0 -1c8,-15 21,-26 35,-31 15,-5 32,-5 48,3l79 37 10 -21 27 -58 1 -1c7,-15 20,-26 34,-31 15,-5 32,-5 48,2z"/>
     </g>
    </g>
    <g id="_1019664896">
     <g>
      <path class="fil1 str0" d="M2128 4938c-44,-71 -60,-159 -64,-290l-1 -28 26 -10c71,-27 139,-45 209,-55 69,-9 139,-10 215,-3l28 3 7 27c31,127 38,216 15,297 -23,81 -76,150 -166,236l-20 20 -26 -13c-109,-60 -178,-112 -223,-184z"/>
     </g>
     <g>
      <path class="fil1 str1" d="M2126 4921c-44,-71 -61,-159 -65,-290l-1 -28 26 -10c72,-27 140,-45 209,-55 70,-9 140,-10 216,-3l28 3 6 27c32,127 39,216 16,297 -24,81 -77,150 -166,236l-21 20 -25 -13c-109,-60 -178,-112 -223,-184z"/>
     </g>
    </g>
    <g>
     <g>
      <path class="fil1 str2" d="M4005 4214l-112 59 0 0c-13,7 -27,9 -40,7l0 0c-10,-2 -19,-6 -27,-11l0 0c-8,-6 -14,-13 -19,-22 -6,-12 -9,-27 -7,-43l0 0 21 -125 -94 -91 0 0c-10,-10 -16,-22 -19,-35l0 0c-2,-9 -1,-18 1,-27l0 0c3,-9 7,-18 14,-25 9,-9 22,-16 38,-19l1 0 129 -20 2 -6c21,-52 54,-136 112,-136 58,1 91,83 112,135l0 0 3 7 128 20 2 0c16,3 29,10 37,19 7,7 12,16 15,25 2,9 3,18 1,27l0 0c-3,13 -9,25 -19,35l0 0 -94 91 21 125 0 0c2,16 -1,31 -7,43 -5,9 -12,16 -19,22 -8,5 -17,9 -27,11 -13,2 -27,0 -40,-7l0 0 -113 -59z"/>
     </g>
     <g>
      <path class="fil1 str3" d="M4005 4197l-112 59 0 -1c-13,8 -27,10 -40,7l0 0c-10,-1 -19,-5 -27,-10l0 0c-8,-6 -14,-13 -19,-22 -6,-12 -9,-27 -7,-43l0 -1 21 -124 -94 -92 0 1c-10,-10 -16,-22 -19,-35l0 0c-2,-9 -1,-18 1,-27l0 0c3,-9 7,-18 14,-25 9,-9 22,-16 38,-19l1 -1 129 -19 2 -6c21,-52 54,-137 112,-136 58,1 91,83 112,135l0 0 3 7 128 19 2 1c16,3 29,10 37,19 7,7 12,16 15,25 2,9 3,18 1,27l0 0c-3,13 -9,25 -19,35l0 -1 -94 92 21 124 0 1c2,16 -1,31 -7,43 -5,9 -12,16 -19,22 -8,5 -17,9 -27,10 -13,3 -27,1 -40,-7l0 1 -113 -59z"/>
     </g>
    </g>
    <g>
     <g>
      <path class="fil2 str2" d="M9418 2723c-20,17 -29,34 28,49l35 10 -46 173c-4,14 4,28 18,32l315 84c14,4 29,-4 33,-18l46 -174 45 13c36,9 47,1 40,-22l-171 -313c-15,-17 -32,-20 -51,-12l-292 178zm372 147l-37 -10c-6,-2 -12,2 -13,7l-10 38c-2,5 2,12 8,13l37 10c6,2 12,-2 13,-8l10 -37c2,-6 -2,-12 -8,-13zm-74 -20l-37 -10c-6,-2 -12,2 -14,8l-10 37c-1,6 2,12 8,13l37 10c6,2 12,-2 14,-8l10 -37c1,-6 -2,-12 -8,-13zm55 91l-37 -10c-6,-2 -12,2 -13,8l-10 37c-2,6 2,12 8,13l37 10c6,2 12,-2 13,-7l10 -38c2,-5 -2,-12 -8,-13zm-74 -20l-37 -10c-6,-2 -12,2 -14,8l-10 37c-1,6 2,12 8,14l37 9c6,2 12,-2 14,-7l10 -37c1,-6 -2,-12 -8,-14z"/>
     </g>
     <g>
      <path class="fil2 str3" d="M9423 2706c-20,18 -29,34 28,50l34 9 -46 173c-4,14 5,29 19,33l315 84c14,3 28,-5 32,-19l46 -173 46 12c35,10 47,1 39,-21l-171 -314c-14,-17 -31,-19 -51,-12l-291 178zm372 147l-37 -10c-6,-2 -12,2 -14,8l-10 37c-1,6 2,12 8,14l37 9c6,2 12,-2 14,-7l10 -38c1,-5 -2,-11 -8,-13zm-75 -20l-37 -10c-6,-1 -12,2 -13,8l-10 37c-2,6 2,12 8,14l37 10c6,1 12,-2 13,-8l10 -37c2,-6 -2,-12 -8,-14zm56 91l-37 -10c-6,-1 -12,2 -14,8l-10 37c-1,6 2,12 8,14l37 10c6,1 12,-2 14,-8l10 -37c1,-6 -2,-12 -8,-14zm-75 -20l-37 -10c-6,-1 -12,2 -13,8l-10 37c-2,6 2,12 8,14l37 10c6,1 12,-2 13,-8l10 -37c2,-6 -2,-12 -8,-14z"/>
     </g>
    </g>
    <g>
     <g>
      <path class="fil2 str0" d="M8045 5236c-9,3 -18,5 -27,6 -53,5 -100,-38 -104,-85 -4,-48 24,-83 61,-98 1,-16 12,-30 29,-31l297 -28c17,-2 28,9 32,24 42,7 80,37 84,85 5,48 -33,99 -85,104 -9,0 -17,0 -24,-1 -6,40 -61,74 -97,83l10 105c27,-3 44,-5 54,29l41 -3 0 0 0 0c32,-3 36,44 5,48l0 0 -1 0c-82,8 -164,16 -246,23l-3 1 0 -1c-28,-1 -32,-41 -5,-48l0 0 4 0 41 -4c3,-36 19,-36 47,-39l-10 -107c-36,-4 -90,-27 -103,-63zm-57 -146c-25,9 -44,32 -41,63 3,31 34,59 67,56 7,-1 13,-2 19,-5 -4,-10 -44,-114 -45,-114zm324 89c6,1 11,1 17,0 33,-3 58,-35 55,-67 -3,-31 -27,-52 -54,-55l-18 122z"/>
     </g>
     <g>
      <path class="fil2 str1" d="M8043 5219c-8,3 -18,5 -27,6 -52,5 -99,-38 -104,-86 -4,-47 24,-82 62,-97 1,-16 11,-30 28,-31l298 -28c16,-2 27,9 32,24 42,7 79,37 84,85 4,48 -34,99 -86,104 -8,0 -16,0 -24,-1 -5,40 -60,74 -97,83l10 105c28,-3 45,-5 54,29l41 -3 1 -1 0 0c31,-2 36,45 4,49l0 0 0 0c-82,8 -164,16 -246,23l-4 1 0 -1c-28,-1 -32,-41 -4,-48l0 0 3 0 41 -4c3,-36 19,-37 48,-39l-10 -107c-37,-4 -90,-27 -104,-63zm-56 -147c-26,10 -44,33 -41,64 3,31 33,59 67,56 6,-1 12,-2 18,-5 -4,-10 -44,-114 -44,-115zm324 90c5,1 10,1 16,0 34,-3 58,-35 55,-67 -3,-31 -26,-52 -54,-55l-17 122z"/>
     </g>
    </g>
    <g>
     <g>
      <path class="fil1 str0" d="M3111 2874l0 154c0,17 -7,32 -18,44 -11,11 -26,18 -43,18l-1 0 -64 0 -23 0 0 87c0,17 -7,33 -19,44 -11,11 -26,18 -43,18l0 0 -132 0c-17,0 -32,-7 -43,-18 -11,-12 -18,-27 -18,-44l0 -88 -23 0 -65 0c-17,0 -32,-7 -43,-18 -11,-11 -18,-27 -18,-44l0 -154c0,-17 7,-32 18,-44 11,-11 26,-17 43,-18l65 0 24 1 0 -88c0,-17 7,-33 18,-44 11,-11 26,-18 43,-18l131 0 1 0c17,0 32,7 43,18 11,12 18,27 18,44l0 88 23 0 65 0 0 0c17,0 32,7 43,18 11,11 18,27 18,44z"/>
     </g>
     <g>
      <path class="fil1 str1" d="M3129 2874l-1 154c0,17 -7,32 -18,44 -11,11 -26,18 -43,18l-1 0 -64 0 -23 0 0 87c0,17 -7,33 -18,44 -11,11 -27,18 -43,18l-1 0 -132 0c-16,0 -32,-7 -43,-18 -11,-12 -18,-27 -18,-44l0 -88 -23 0 -65 0c-17,0 -32,-7 -43,-18 -11,-11 -18,-27 -18,-44l0 -154c0,-17 7,-32 18,-43 11,-11 27,-18 43,-19l65 0 24 1 0 -88c0,-17 7,-33 18,-44 11,-11 26,-18 43,-18l131 0 1 0c17,0 32,7 43,18 11,12 18,27 18,44l0 88 24 0 64 0 1 0c16,0 31,7 42,18 12,11 19,27 19,44z"/>
     </g>
    </g>
    <g>
     <g>
      <path class="fil1 str0" d="M3164 6334c0,-84 33,-167 99,-280l14 -24 28 5c75,15 142,36 206,65 63,29 123,66 184,112l22 17 -9 27c-41,124 -82,204 -145,260 -63,56 -145,86 -266,111l-28 6 -14 -25c-61,-108 -92,-189 -91,-274z"/>
     </g>
     <g>
      <path class="fil1 str1" d="M3171 6319c0,-84 33,-168 99,-281l15 -24 27 6c75,14 142,36 206,65 63,29 123,66 184,112l22 17 -9 26c-41,125 -82,204 -145,260 -63,56 -144,86 -266,112l-28 6 -14 -25c-61,-109 -92,-190 -91,-274z"/>
     </g>
    </g>
    <g>
     <g>
      <path class="fil1 str2" d="M5683 5744l-35 122 0 0c-4,14 -12,26 -23,34l0 0c-7,6 -16,10 -26,12l0 0c-9,2 -19,1 -28,-1 -14,-4 -27,-12 -37,-25l0 0 -76 -100 -131 4 0 0c-14,1 -27,-3 -38,-10l0 0c-8,-4 -14,-11 -19,-19l0 0c-5,-8 -8,-17 -8,-27 -1,-13 3,-27 12,-41l0 -1 74 -106 -3 -7c-23,-50 -61,-133 -21,-174 40,-41 123,-9 175,11l0 0 7 3 103 -80 1 -1c13,-9 27,-14 40,-14 10,0 19,2 27,7 9,4 16,10 21,18l0 0c7,10 12,23 12,37l0 0 2 131 104 71 1 0c13,9 22,22 26,35 3,9 4,19 3,28 -1,10 -5,19 -11,27 -7,11 -18,20 -32,25l0 0 -120 41z"/>
     </g>
     <g>
      <path class="fil1 str3" d="M5671 5732l-35 122 0 0c-4,15 -12,26 -23,34l0 0c-8,6 -17,10 -26,12l0 0c-9,2 -19,2 -29,-1 -13,-4 -26,-12 -36,-25l0 0 -76 -100 -131 5 0 0c-14,0 -28,-3 -39,-10l0 0c-7,-5 -14,-12 -18,-20l-1 0c-4,-8 -7,-17 -8,-27 0,-13 3,-27 12,-41l1 -1 74 -106 -3 -7c-23,-50 -62,-133 -21,-174 40,-41 123,-9 175,11l-1 0 8 3 102 -80 1 -1c14,-9 27,-14 40,-14 10,0 20,3 28,7 8,4 15,10 20,18l0 0c8,10 12,23 12,37l0 0 3 132 104 70 0 0c14,9 22,22 27,35 3,9 4,19 3,29 -2,9 -5,18 -11,26 -8,11 -19,20 -33,25l0 0 -119 41z"/>
     </g>
    </g>
    <g>
     <g>
      <path class="fil1 str0" d="M6904 3224l139 66c16,7 27,20 32,35 5,15 5,31 -2,47l0 0 -28 58 -10 22 80 37c15,7 26,20 31,35 6,15 5,31 -2,47l0 0 -56 119c-8,15 -20,26 -35,31 -15,6 -32,5 -47,-2l-79 -38 -10 22 -28 58c-8,15 -20,26 -35,31 -15,6 -32,5 -47,-2l-140 -66c-15,-7 -26,-20 -31,-35 -6,-15 -5,-31 2,-46l27 -59 10 -21 -79 -38c-15,-7 -26,-20 -32,-35 -5,-15 -5,-31 2,-47l57 -118 0 -1c7,-15 20,-26 35,-31 15,-5 32,-5 47,2l79 38 10 -21 28 -59 0 0c7,-15 20,-26 35,-31 15,-6 32,-5 47,2z"/>
     </g>
     <g>
      <path class="fil1 str1" d="M6911 3209l140 65c15,8 26,21 32,36 5,14 5,31 -2,46l-1 1 -27 58 -10 21 79 38c15,7 26,20 32,35 5,14 5,31 -2,46l-1 1 -56 119c-7,15 -20,26 -35,31 -15,5 -32,5 -47,-3l-79 -37 -10 21 -28 59c-7,15 -20,26 -35,31 -15,5 -32,5 -47,-2l-139 -66c-16,-8 -27,-21 -32,-35 -5,-15 -5,-32 2,-47l28 -59 10 -21 -79 -37c-16,-8 -27,-21 -32,-36 -5,-14 -5,-31 2,-46l56 -119 0 -1c8,-15 21,-25 35,-31 15,-5 32,-5 47,3l80 37 10 -21 27 -58 0 -1c8,-15 21,-26 35,-31 15,-5 32,-5 47,3z"/>
     </g>
    </g>
    <g>
     <g>
      <path class="fil1 str0" d="M7179 6883c1,-84 34,-167 100,-280l14 -24 28 5c74,15 142,36 205,65 64,29 124,66 185,112l22 17 -9 27c-41,124 -82,203 -145,259 -63,57 -145,87 -266,112l-29 6 -14 -25c-60,-108 -91,-189 -91,-274z"/>
     </g>
     <g>
      <path class="fil1 str1" d="M7186 6867c1,-84 34,-167 100,-280l14 -24 28 5c75,15 142,36 206,66 63,29 123,65 184,111l22 17 -9 27c-41,125 -82,204 -145,260 -63,56 -145,86 -266,112l-28 6 -15 -26c-60,-108 -91,-189 -91,-274z"/>
     </g>
    </g>
    <g>
     <g>
      <path class="fil1 str2" d="M9403 6317l-125 -21 0 0c-15,-3 -27,-10 -36,-19l0 0c-7,-7 -12,-16 -15,-25l0 0c-3,-9 -4,-19 -2,-29 2,-13 9,-27 21,-38l0 0 91 -87 -19 -130 0 0c-2,-13 0,-27 6,-39l0 0c4,-8 10,-15 17,-21l0 0c8,-5 16,-9 27,-11 12,-2 26,0 41,8l1 0 114 62 6 -3c48,-29 126,-76 171,-40 46,35 23,121 8,175l0 -1 -2 8 91 93 1 1c10,12 16,26 18,38 1,10 0,20 -4,29 -3,8 -9,16 -15,22l0 0c-10,8 -23,14 -37,16l0 0 -130 16 -58 112 0 0c-8,14 -19,24 -32,30 -9,4 -19,6 -28,6 -10,0 -19,-3 -28,-7 -12,-7 -22,-17 -28,-30l0 0 -54 -115z"/>
     </g>
     <g>
      <path class="fil1 str3" d="M9413 6304l-124 -22 0 0c-15,-2 -28,-9 -37,-19l0 0c-7,-7 -12,-15 -15,-24l0 -1c-3,-8 -3,-18 -2,-28 3,-14 9,-28 21,-39l0 0 92 -87 -19 -129 0 0c-2,-14 0,-28 5,-39l0 0c4,-9 10,-16 17,-21l1 0c7,-6 16,-10 26,-11 13,-2 27,0 41,7l2 1 114 62 6 -4c47,-29 125,-76 171,-40 45,35 22,121 8,175l-1 0 -2 7 91 93 1 2c11,12 17,25 18,38 1,10 0,19 -4,28 -3,9 -8,16 -15,22l0 0c-10,9 -22,15 -36,16l0 0 -130 17 -59 111 0 0c-8,15 -19,25 -32,31 -9,4 -19,6 -28,5 -9,0 -19,-2 -28,-7 -11,-6 -21,-17 -28,-30l0 0 -54 -114z"/>
     </g>
    </g>
    <g>
     <g>
      <path class="fil2 str2" d="M7027 1638c-17,19 -24,37 35,45l35 5 -23 177c-2,15 8,28 23,30l323 43c14,2 27,-8 29,-23l24 -178 46 7c37,4 47,-5 37,-27l-211 -288c-16,-15 -33,-16 -51,-6l-267 215zm388 97l-38 -5c-6,-1 -11,3 -12,9l-5 38c-1,7 3,12 9,13l39 5c6,1 11,-4 12,-10l5 -38c1,-6 -4,-11 -10,-12zm-76 -10l-38 -5c-6,-1 -12,3 -12,9l-5 38c-1,6 3,12 9,13l38 5c6,1 12,-4 13,-10l5 -38c0,-6 -4,-11 -10,-12zm67 83l-38 -5c-6,-1 -12,4 -13,10l-5 38c0,6 4,11 10,12l38 5c6,1 12,-3 12,-9l5 -38c1,-7 -3,-12 -9,-13zm-77 -10l-38 -5c-6,-1 -11,3 -12,10l-5 38c-1,6 3,11 9,12l38 5c7,1 12,-3 13,-9l5 -39c1,-6 -4,-11 -10,-12z"/>
     </g>
     <g>
      <path class="fil2 str3" d="M7030 1621c-18,19 -24,37 34,45l35 5 -23 177c-2,15 8,28 23,30l323 43c14,2 28,-9 30,-23l23 -178 47 7c36,4 46,-6 36,-27l-210 -288c-17,-15 -34,-16 -52,-6l-266 215zm388 97l-38 -5c-6,-1 -12,3 -13,9l-5 38c-1,6 4,12 10,13l38 5c6,1 11,-4 12,-10l5 -38c1,-6 -3,-11 -9,-12zm-77 -10l-38 -5c-6,-1 -11,3 -12,9l-5 38c-1,6 3,12 9,13l38 5c6,1 12,-4 13,-10l5 -38c1,-6 -4,-11 -10,-12zm67 83l-38 -5c-6,-1 -12,4 -12,10l-5 38c-1,6 3,11 9,12l38 5c6,1 12,-3 13,-9l5 -38c0,-7 -4,-12 -10,-13zm-76 -10l-38 -5c-6,-1 -12,3 -13,10l-5 38c-1,6 4,11 10,12l38 5c6,1 11,-3 12,-10l5 -38c1,-6 -3,-11 -9,-12z"/>
     </g>
    </g>
    <g>
     <g>
      <path class="fil2 str0" d="M5702 4016c-8,-4 -16,-9 -23,-15 -39,-36 -38,-99 -6,-135 32,-35 77,-37 113,-20 13,-10 30,-11 43,0l220 202c13,11 12,27 4,40 23,36 26,84 -7,120 -33,35 -95,41 -134,6 -6,-6 -11,-12 -16,-19 -33,23 -95,5 -126,-15l-71 77c20,19 33,30 14,60l30 28 1 0 0 0c23,22 -9,57 -33,36l0 0 -1 0c-60,-56 -121,-111 -182,-167l-2 -2 0 0c-18,-22 9,-52 32,-36l0 0 3 2 30 28c29,-22 40,-10 61,9l72 -79c-21,-30 -39,-85 -22,-120zm70 -140c-24,-12 -53,-10 -74,13 -21,23 -22,64 3,87 5,4 11,8 16,10 5,-10 55,-109 55,-110zm152 300c3,5 6,9 10,13 25,23 66,19 87,-4 22,-23 21,-55 5,-78l-102 69z"/>
     </g>
     <g>
      <path class="fil2 str1" d="M5714 4004c-9,-4 -16,-9 -24,-16 -38,-35 -38,-99 -6,-134 33,-35 77,-38 114,-21 13,-9 30,-11 42,1l221 201c12,12 11,27 3,41 23,35 26,83 -6,119 -33,36 -96,41 -135,6 -6,-6 -11,-12 -15,-18 -33,22 -95,5 -127,-16l-71 78c20,18 34,29 14,59l31 28 0 0 0 0c23,22 -9,57 -33,36l0 0 0 0c-61,-56 -122,-111 -182,-167l-3 -2 0 0c-18,-22 10,-52 33,-36l0 0 3 2 30 28c29,-22 40,-10 61,9l72 -79c-22,-30 -40,-85 -22,-119zm70 -140c-24,-12 -54,-11 -75,12 -21,23 -21,64 4,87 5,5 10,8 16,11 5,-10 55,-109 55,-110zm151 300c3,4 7,8 11,12 25,23 66,20 87,-4 21,-23 20,-54 4,-77l-102 69z"/>
     </g>
    </g>
    <g>
     <g>
      <path class="fil1 str0" d="M4327 2151l146 -47c17,-6 33,-4 48,3 13,7 25,20 30,36l0 0 20 61 7 23 84 -28c16,-5 33,-3 47,4 14,7 25,20 30,35l1 1 40 125c5,16 4,33 -4,47 -7,14 -19,25 -35,30l-84 27 7 23 21 62c5,16 3,32 -4,46 -8,14 -20,25 -36,31l-147 47c-16,6 -33,4 -47,-3 -14,-7 -25,-20 -31,-35l-20 -62 -7 -22 -83 27c-16,5 -33,3 -47,-4 -14,-7 -26,-19 -31,-35l-41 -125 0 -1c-5,-16 -3,-33 4,-46 7,-15 20,-26 36,-31l83 -27 -7 -23 -20 -61 0 0c-5,-16 -3,-33 4,-47 7,-14 20,-25 36,-31z"/>
     </g>
     <g>
      <path class="fil1 str1" d="M4321 2135l147 -48c16,-5 33,-3 47,4 14,7 25,19 31,35l0 1 20 61 7 22 83 -27c17,-5 34,-3 48,4 14,7 25,19 30,35l0 1 41 125c5,16 3,32 -4,46 -7,14 -20,26 -36,31l-83 27 7 22 20 62c5,16 3,33 -4,47 -7,14 -19,25 -36,30l-146 48c-16,5 -33,4 -47,-4 -14,-7 -25,-19 -31,-35l-20 -62 -7 -22 -84 27c-16,6 -33,4 -47,-3 -14,-7 -25,-20 -30,-36l-41 -125 0 0c-5,-16 -3,-33 4,-47 7,-14 19,-25 36,-31l83 -27 -7 -22 -20 -61 0 -1c-5,-16 -4,-32 4,-46 7,-14 19,-26 35,-31z"/>
     </g>
    </g>
    <g>
     <g>
      <path class="fil2 str0" d="M2663 1699c-9,2 -18,2 -28,1 -52,-6 -89,-58 -83,-106 5,-47 40,-75 80,-82 5,-16 18,-27 35,-25l296 35c17,2 25,15 27,31 39,15 70,52 64,100 -6,48 -53,90 -105,83 -9,0 -16,-2 -24,-5 -13,37 -74,59 -112,61l-12 104c27,4 45,5 47,41l40 4 1 0 0 0c31,5 26,52 -6,49l0 0 0 0c-82,-10 -164,-19 -246,-29l-3 0 0 -1c-27,-7 -22,-47 6,-48l0 0 3 1 41 4c10,-34 26,-31 55,-28l12 -106c-35,-12 -82,-46 -88,-84zm-25 -155c-26,4 -49,23 -53,54 -4,31 20,65 54,69 6,0 13,0 19,-1 -2,-11 -19,-121 -20,-122zm299 155c5,2 10,4 15,4 34,4 65,-22 69,-54 3,-31 -15,-56 -42,-65l-42 115z"/>
     </g>
     <g>
      <path class="fil2 str1" d="M2665 1682c-9,2 -18,2 -28,1 -52,-6 -89,-58 -83,-106 5,-47 40,-75 80,-82 5,-16 18,-27 35,-25l296 35c17,2 25,15 27,31 39,15 70,52 64,100 -6,48 -53,90 -105,83 -9,-1 -16,-2 -24,-5 -13,37 -74,59 -112,61l-12 104c27,4 45,5 47,41l40 4 1 0 0 0c31,5 26,52 -6,49l0 0 0 0c-82,-10 -164,-19 -246,-29l-3 0 0 -1c-27,-7 -22,-47 6,-48l0 0 3 1 41 4c10,-34 26,-31 55,-28l12 -106c-35,-12 -82,-46 -88,-84zm-25 -155c-26,4 -49,23 -53,54 -4,31 20,65 54,69 6,0 13,0 19,-1 -2,-11 -19,-121 -20,-122zm299 155c5,2 10,4 15,4 34,4 65,-22 69,-54 3,-31 -15,-56 -42,-66l-42 116z"/>
     </g>
    </g>
    <g>
     <g>
      <path class="fil2 str0" d="M9898 4785c-7,6 -14,12 -23,17 -45,26 -106,5 -129,-37 -23,-41 -12,-84 17,-114 -6,-15 -2,-31 13,-40l261 -146c15,-8 29,-2 39,10 41,-11 88,1 111,43 24,43 10,104 -36,130 -7,4 -15,7 -22,9 11,38 -26,92 -55,115l51 92c24,-14 39,-22 61,5l36 -20 1 0 0 0c28,-15 51,26 24,42l0 0 -1 1c-72,40 -144,80 -215,120l-3 2 -1 0c-26,10 -46,-26 -23,-43l0 0 3 -1 36 -20c-12,-35 2,-42 27,-55l-52 -94c-35,11 -93,11 -120,-16zm-111 -111c-19,19 -27,48 -12,75 16,27 54,40 84,24 6,-3 11,-7 15,-12 -8,-8 -86,-87 -87,-87zm332 -49c6,-2 11,-4 15,-6 30,-17 40,-57 24,-84 -15,-28 -45,-37 -72,-29l33 119z"/>
     </g>
     <g>
      <path class="fil2 str1" d="M9889 4770c-6,6 -14,12 -22,17 -46,26 -106,5 -129,-37 -24,-41 -12,-84 16,-114 -5,-15 -1,-31 14,-40l260 -146c15,-8 30,-2 40,10 41,-11 87,1 111,43 24,43 9,104 -37,130 -7,4 -14,7 -22,9 11,38 -25,92 -55,115l52 92c24,-14 39,-22 61,5l36 -20 0 0 0 0c28,-15 51,26 24,42l0 0 0 1c-72,40 -144,80 -216,120l-3 2 0 0c-26,10 -46,-26 -24,-42l0 -1 3 -1 36 -20c-12,-35 3,-41 28,-55l-52 -94c-35,11 -94,11 -121,-16zm-111 -111c-19,19 -26,48 -11,75 15,27 54,40 84,24 5,-3 10,-7 15,-12 -8,-8 -86,-87 -88,-87zm333 -49c5,-2 10,-4 15,-6 30,-17 39,-57 24,-84 -16,-28 -46,-37 -73,-29l34 119z"/>
     </g>
    </g>
    <g>
     <g>
      <path class="fil1 str2" d="M12167 4924l-32 122 0 0c-4,15 -12,27 -22,35l-1 0c-7,6 -16,10 -25,12l0 0c-10,2 -19,2 -29,0 -14,-4 -27,-12 -37,-25l0 0 -78 -99 -131 7 0 0c-14,1 -27,-2 -38,-9l0 0c-8,-5 -14,-11 -19,-19l0 0c-5,-8 -8,-17 -9,-27 -1,-13 3,-27 11,-41l1 -1 72 -108 -3 -6c-24,-50 -64,-132 -24,-174 39,-42 123,-11 175,8l0 0 7 3 101 -82 1 -1c13,-9 27,-14 40,-14 10,-1 19,2 28,6 8,4 15,10 20,17l0 0c8,11 13,24 13,38l0 0 5 131 105 68 0 1c14,9 23,21 27,34 4,9 5,19 4,28 -1,10 -5,19 -10,28 -8,11 -19,20 -33,25l0 0 -119 43z"/>
     </g>
     <g>
      <path class="fil1 str3" d="M12155 4912l-33 123 0 0c-4,14 -12,26 -22,34l0 0c-8,6 -17,11 -26,13l0 0c-9,2 -19,1 -29,-1 -13,-4 -26,-11 -37,-24l0 0 -77 -99 -131 7 0 0c-14,1 -28,-3 -39,-9l0 0c-7,-5 -14,-12 -19,-19l0 -1c-5,-7 -8,-17 -9,-27 0,-13 3,-27 12,-41l0 -1 72 -107 -3 -7c-24,-50 -63,-132 -24,-174 40,-42 123,-11 175,8l0 0 7 3 101 -81 1 -1c14,-10 27,-15 40,-15 10,0 20,2 28,6 8,4 15,10 21,18l0 0c7,10 12,23 12,37l0 0 5 131 105 69 1 0c13,9 22,21 27,34 3,10 4,20 3,29 -1,9 -4,19 -10,27 -7,11 -18,20 -32,25l0 0 -119 43z"/>
     </g>
    </g>
    <g>
     <g>
      <path class="fil1 str0" d="M11192 6977c42,-73 112,-129 225,-195l24 -14 21 18c58,50 106,101 148,158 41,57 75,118 105,188l11 26 -21 19c-97,88 -172,137 -254,154 -83,18 -168,4 -287,-33l-27 -9 0 -28c0,-125 13,-211 55,-284z"/>
     </g>
     <g>
      <path class="fil1 str1" d="M11206 6967c42,-73 111,-129 225,-195l24 -14 21 18c58,50 106,101 147,158 42,57 76,118 106,188l11 26 -21 19c-97,88 -172,136 -254,154 -83,18 -168,4 -287,-33l-27 -9 0 -29c0,-124 13,-210 55,-283z"/>
     </g>
    </g>
    <g>
     <g>
      <path class="fil1 str0" d="M10521 3658c-45,-71 -64,-158 -70,-289l-1 -28 25 -10c71,-29 139,-48 208,-59 69,-10 140,-12 216,-7l28 2 7 27c33,127 42,216 21,297 -22,82 -74,151 -162,239l-20 21 -26 -13c-110,-58 -180,-109 -226,-180z"/>
     </g>
     <g>
      <path class="fil1 str1" d="M10519 3641c-46,-70 -64,-158 -71,-289l-1 -28 26 -10c70,-29 138,-48 208,-59 69,-10 139,-12 215,-7l28 2 7 27c34,127 43,216 21,297 -22,82 -74,151 -161,240l-21 20 -25 -13c-110,-58 -181,-108 -226,-180z"/>
     </g>
    </g>
    <g>
     <g>
      <path class="fil1 str0" d="M11164 1300l151 -32c17,-4 33,0 47,8 13,9 23,22 26,38l0 1 14 63 5 23 85 -19c17,-3 34,0 47,9 13,9 23,22 27,38l0 1 28 129c3,16 -1,32 -9,45 -9,14 -22,24 -39,27l-86 19 5 23 14 63c3,16 0,33 -9,46 -9,13 -22,23 -39,27l-151 32c-16,4 -33,0 -46,-8 -13,-9 -23,-22 -27,-39l-13 -63 -5 -23 -86 18c-17,4 -33,0 -47,-8 -13,-9 -23,-22 -26,-38l-28 -129 0 -1c-3,-16 0,-32 9,-45 8,-14 22,-24 39,-27l85 -19 -5 -23 -13 -62 0 -1c-4,-17 0,-33 8,-46 9,-13 23,-23 39,-27z"/>
     </g>
     <g>
      <path class="fil1 str1" d="M11161 1283l150 -32c17,-4 34,0 47,9 13,8 23,21 27,38l0 0 13 63 5 23 86 -18c17,-4 33,0 46,8 14,9 23,22 27,38l0 1 28 129c3,16 0,32 -9,46 -8,13 -22,23 -39,26l-85 19 5 23 13 63c4,17 0,33 -9,46 -8,13 -22,23 -38,27l-151 32c-17,4 -33,0 -47,-8 -13,-9 -23,-22 -26,-38l-14 -64 -5 -23 -86 19c-16,3 -33,0 -46,-9 -13,-8 -23,-22 -27,-38l-28 -129 0 0c-3,-17 1,-33 9,-46 9,-14 22,-24 39,-27l86 -19 -5 -22 -14 -63 0 -1c-3,-16 0,-33 9,-46 8,-13 22,-23 39,-27z"/>
     </g>
    </g>
    <g>
     <g>
      <path class="fil2 str2" d="M1389 6359c-12,22 -15,41 44,36l35 -3 17 178c2,15 15,25 29,24l325 -31c14,-1 25,-14 23,-29l-17 -178 47 -5c37,-3 45,-15 30,-33l-270 -234c-19,-11 -36,-8 -51,6l-212 269zm400 7l-38 4c-6,0 -11,6 -10,12l3 38c1,6 6,11 13,10l38 -4c6,0 10,-6 10,-12l-4 -38c0,-6 -6,-10 -12,-10zm-77 7l-38 4c-6,1 -10,6 -10,12l4 38c0,6 6,11 12,10l38 -3c6,-1 11,-6 10,-12l-4 -39c0,-6 -6,-10 -12,-10zm84 67l-38 3c-6,1 -11,6 -10,12l3 39c1,6 6,10 13,10l38 -4c6,-1 10,-6 10,-12l-4 -38c0,-6 -6,-11 -12,-10zm-77 7l-38 4c-6,0 -10,6 -10,12l4 38c0,6 6,10 12,10l38 -4c6,0 11,-6 10,-12l-4 -38c0,-6 -6,-11 -12,-10z"/>
     </g>
     <g>
      <path class="fil2 str3" d="M1387 6341c-12,23 -15,42 44,37l36 -3 17 178c1,14 14,25 29,24l324 -31c14,-1 25,-14 24,-29l-17 -178 47 -5c36,-3 44,-15 29,-34l-269 -233c-20,-11 -37,-8 -52,5l-212 269zm400 8l-38 4c-6,0 -10,6 -10,12l4 38c0,6 6,11 12,10l38 -4c6,0 11,-6 10,-12l-4 -38c0,-6 -6,-10 -12,-10zm-76 7l-39 4c-6,1 -10,6 -10,12l4 38c1,6 6,11 12,10l38 -3c6,-1 11,-6 10,-12l-3 -39c-1,-6 -6,-10 -12,-10zm83 67l-38 3c-6,1 -10,6 -10,12l4 39c0,6 6,10 12,9l38 -3c6,-1 11,-6 10,-12l-4 -38c0,-6 -6,-11 -12,-10zm-76 7l-39 4c-6,0 -10,6 -10,12l4 38c1,6 6,10 12,10l38 -4c6,0 11,-6 10,-12l-3 -38c-1,-6 -6,-11 -12,-10z"/>
     </g>
    </g>
    <g>
     <g>
      <path class="fil2 str2" d="M1462 3279c5,26 15,42 56,0l26 -25 128 125c10,10 27,10 37,-1l228 -233c10,-10 10,-27 0,-37l-129 -125 33 -34c26,-26 24,-40 1,-45l-357 -4c-22,4 -32,17 -36,38l13 341zm310 -252l-27 28c-4,4 -4,11 0,15l28 27c4,4 11,4 15,0l27 -28c5,-4 5,-11 0,-15l-27 -27c-5,-4 -12,-4 -16,0zm-54 55l-27 28c-4,4 -4,11 0,15l28 27c4,4 11,4 16,0l26 -27c5,-5 5,-12 0,-16l-27 -27c-5,-4 -12,-4 -16,0zm107 -3l-27 27c-4,5 -4,12 0,16l28 27c4,4 11,4 15,0l27 -28c4,-4 4,-11 0,-16l-28 -26c-4,-5 -11,-5 -15,0zm-54 55l-27 27c-4,5 -4,12 0,16l28 27c4,4 11,4 15,0l27 -28c4,-4 4,-11 0,-15l-27 -27c-5,-5 -12,-4 -16,0z"/>
     </g>
     <g>
      <path class="fil2 str3" d="M1449 3267c6,26 16,42 57,0l25 -25 128 125c11,10 28,10 38,-1l228 -233c10,-10 10,-27 -1,-37l-128 -125 33 -34c26,-26 24,-40 1,-45l-357 -4c-22,4 -33,17 -36,38l12 341zm311 -252l-27 28c-4,4 -4,11 0,15l28 27c4,4 11,4 15,0l27 -28c4,-4 4,-11 0,-15l-28 -27c-4,-4 -11,-4 -15,0zm-54 55l-27 28c-4,4 -4,11 0,15l28 27c4,4 11,4 15,0l27 -27c4,-5 4,-12 0,-16l-27 -27c-5,-4 -12,-4 -16,0zm107 -3l-27 27c-5,5 -4,12 0,16l27 27c5,4 12,4 16,0l27 -28c4,-4 4,-11 0,-16l-28 -26c-4,-5 -11,-5 -15,0zm-54 55l-27 27c-4,5 -4,12 0,16l27 27c5,4 12,4 16,0l27 -28c4,-4 4,-11 0,-15l-28 -27c-4,-5 -11,-4 -15,0z"/>
     </g>
    </g>
    <g>
     <g>
      <path class="fil2 str2" d="M8958 1594c6,26 16,42 57,0l25 -26 128 126c11,10 28,10 38,-1l228 -233c10,-10 10,-27 -1,-37l-128 -125 33 -34c26,-26 24,-40 1,-45l-357 -4c-22,4 -33,17 -36,37l12 342zm311 -252l-27 27c-4,5 -4,12 0,16l28 27c4,4 11,4 15,0l27 -28c4,-4 4,-11 0,-15l-28 -27c-4,-4 -11,-4 -15,0zm-54 55l-27 28c-4,4 -4,11 0,15l28 27c4,4 11,4 15,0l27 -28c4,-4 4,-11 0,-15l-27 -27c-5,-4 -12,-4 -16,0zm107 -3l-27 27c-5,4 -4,12 0,16l27 27c5,4 12,4 16,-1l27 -27c4,-4 4,-11 0,-16l-28 -27c-4,-4 -11,-4 -15,1zm-54 55l-27 27c-4,5 -4,12 0,16l27 27c5,4 12,4 16,0l27 -28c4,-4 4,-11 0,-16l-28 -26c-4,-5 -11,-5 -15,0z"/>
     </g>
     <g>
      <path class="fil2 str3" d="M8946 1582c5,26 16,42 57,0l25 -26 128 126c11,10 27,10 38,-1l227 -233c11,-10 10,-27 0,-37l-128 -125 33 -34c26,-26 24,-40 0,-45l-356 -4c-22,4 -33,17 -36,37l12 342zm311 -252l-27 27c-5,5 -4,12 0,16l27 27c5,4 12,4 16,0l27 -28c4,-4 4,-11 0,-15l-28 -27c-4,-4 -11,-4 -15,0zm-54 55l-27 28c-4,4 -4,11 0,15l27 27c5,4 12,4 16,0l27 -28c4,-4 4,-11 0,-15l-28 -27c-4,-4 -11,-4 -15,0zm106 -3l-27 27c-4,4 -4,12 1,16l27 27c4,4 11,4 16,-1l27 -27c4,-4 4,-11 -1,-16l-27 -27c-4,-4 -11,-4 -16,1zm-54 55l-26 27c-5,5 -5,12 0,16l27 27c5,4 12,4 16,0l27 -28c4,-4 4,-11 0,-16l-28 -26c-4,-5 -11,-5 -16,0z"/>
     </g>
    </g>
    <g>
     <g>
      <path class="fil2 str2" d="M5329 1674c5,26 15,42 57,0l25 -25 128 125c10,10 27,10 37,-1l228 -233c10,-10 10,-27 0,-37l-128 -125 32 -34c26,-26 24,-40 1,-45l-357 -4c-21,4 -32,17 -35,37l12 342zm310 -252l-27 28c-4,4 -4,11 0,15l28 27c4,4 11,4 16,0l26 -28c5,-4 5,-11 0,-15l-27 -27c-5,-4 -12,-4 -16,0zm-54 55l-27 28c-4,4 -4,11 1,15l27 27c4,4 11,4 16,0l27 -27c4,-5 4,-12 -1,-16l-27 -27c-4,-4 -11,-4 -16,0zm107 -3l-27 27c-4,5 -4,12 0,16l28 27c4,4 11,4 15,0l27 -28c4,-4 4,-11 0,-16l-27 -26c-5,-5 -12,-5 -16,0zm-54 55l-27 27c-4,5 -4,12 0,16l28 27c4,4 11,4 15,0l27 -28c5,-4 4,-11 0,-15l-27 -27c-5,-5 -12,-5 -16,0z"/>
     </g>
     <g>
      <path class="fil2 str3" d="M5316 1662c6,26 16,42 57,0l25 -25 128 125c11,10 28,10 38,-1l228 -233c10,-10 10,-27 -1,-37l-128 -125 33 -34c26,-26 24,-40 1,-45l-357 -4c-22,4 -32,17 -36,37l12 342zm311 -252l-27 28c-4,4 -4,11 0,15l28 27c4,4 11,4 15,0l27 -28c4,-4 4,-11 0,-15l-27 -27c-5,-4 -12,-4 -16,0zm-54 55l-27 28c-4,4 -4,11 0,15l28 27c4,4 11,4 15,0l27 -27c5,-5 4,-12 0,-16l-27 -27c-5,-4 -12,-4 -16,0zm107 -3l-27 27c-4,5 -4,12 0,16l27 27c5,4 12,4 16,0l27 -28c4,-4 4,-11 0,-16l-28 -26c-4,-5 -11,-5 -15,0zm-54 55l-27 27c-4,5 -4,12 0,16l28 27c4,4 11,4 15,0l27 -28c4,-4 4,-11 0,-15l-28 -27c-4,-5 -11,-5 -15,0z"/>
     </g>
    </g>
    <g>
     <g>
      <path class="fil2 str2" d="M8191 2802c-25,4 -42,13 -3,57l24 26 -132 121c-11,10 -12,26 -2,37l219 242c9,10 26,11 37,1l133 -120 31 35c25,27 39,26 45,3l26 -356c-3,-22 -16,-33 -36,-38l-342 -8zm234 325l-26 -28c-4,-5 -11,-5 -16,-1l-28 26c-5,4 -5,11 -1,15l26 29c4,4 11,5 15,1l29 -26c4,-4 5,-11 1,-16zm-52 -57l-26 -28c-4,-5 -11,-5 -16,-1l-28 26c-5,4 -5,11 -1,15l26 29c4,4 11,4 16,0l28 -25c5,-4 5,-12 1,-16zm-3 107l-26 -29c-4,-4 -11,-5 -16,-1l-28 26c-4,4 -5,11 -1,16l26 28c4,5 11,5 16,1l28 -26c5,-4 5,-11 1,-15zm-52 -57l-26 -29c-4,-4 -11,-5 -15,-1l-29 26c-4,4 -5,11 -1,16l26 28c4,5 11,5 16,1l28 -26c5,-4 5,-11 1,-15z"/>
     </g>
     <g>
      <path class="fil2 str3" d="M8204 2791c-26,3 -42,12 -3,56l24 27 -133 120c-11,10 -11,27 -2,38l219 241c10,11 27,12 38,2l132 -120 32 34c25,28 39,27 45,4l26 -356c-3,-22 -16,-34 -36,-38l-342 -8zm233 325l-25 -29c-5,-4 -12,-5 -16,-1l-29 26c-4,4 -4,11 0,16l25 28c5,5 12,5 16,1l29 -26c4,-4 4,-11 0,-15zm-51 -58l-26 -28c-4,-5 -11,-5 -16,-1l-28 26c-5,4 -5,11 -1,16l26 28c4,5 11,5 15,1l29 -26c4,-4 5,-11 1,-16zm-3 107l-26 -28c-4,-5 -11,-5 -16,-1l-28 26c-5,4 -5,11 -1,15l26 29c4,4 11,5 15,1l29 -26c4,-4 5,-11 1,-16zm-52 -57l-26 -28c-4,-5 -11,-5 -16,-1l-28 26c-5,4 -5,11 -1,15l26 29c4,4 11,5 16,0l28 -25c5,-4 5,-11 1,-16z"/>
     </g>
    </g>
    <g>
     <g>
      <path class="fil2 str0" d="M4957 7067c-9,2 -18,3 -28,3 -52,0 -94,-48 -94,-96 1,-48 32,-79 71,-91 3,-15 15,-28 32,-28l299 4c17,0 26,13 29,28 41,11 75,45 75,94 -1,48 -44,94 -96,93 -9,0 -17,-1 -24,-3 -10,39 -68,67 -105,72l-1 106c27,0 44,0 50,35l41 0 1 0 0 0c31,2 30,49 -1,49l0 0 -1 0c-82,-1 -164,-2 -247,-3l-3 0 0 0c-28,-5 -27,-45 1,-49l0 0 3 0 41 1c7,-36 23,-34 52,-34l1 -107c-36,-8 -86,-37 -96,-74zm-41 -152c-26,7 -47,28 -47,60 -1,31 26,61 60,62 7,0 13,-1 19,-3 -3,-11 -31,-118 -32,-119zm313 124c5,1 10,2 16,2 34,0 62,-29 62,-61 1,-32 -21,-54 -48,-61l-30 120z"/>
     </g>
     <g>
      <path class="fil2 str1" d="M4957 7049c-9,3 -18,4 -28,4 -52,0 -94,-48 -94,-96 1,-48 33,-79 72,-91 3,-16 14,-28 32,-28l298 4c17,0 27,13 30,28 40,11 75,45 74,93 -1,49 -44,95 -96,94 -8,0 -16,-1 -24,-3 -10,39 -68,67 -105,72l-1 106c27,0 44,0 50,35l41 0 1 0 0 0c31,1 31,49 -1,49l0 0 0 0c-83,-1 -165,-2 -248,-3l-3 0 0 0c-28,-5 -27,-45 1,-49l0 0 3 0 41 1c7,-36 23,-35 52,-34l1 -107c-36,-8 -86,-37 -96,-75zm-41 -151c-26,7 -47,28 -47,59 -1,31 27,62 61,63 6,0 12,-1 18,-3 -3,-11 -31,-118 -32,-119zm313 123c5,2 11,3 16,3 34,0 62,-29 63,-61 0,-32 -21,-54 -49,-61l-30 119z"/>
     </g>
    </g>
    <g>
     <g>
      <path class="fil2 str0" d="M3863 5294c-7,5 -15,10 -24,14 -48,20 -106,-7 -124,-51 -19,-44 -2,-85 29,-111 -4,-16 2,-32 18,-39l275 -115c16,-7 30,1 39,14 41,-6 86,11 105,56 19,44 -3,104 -51,124 -8,3 -15,5 -23,7 6,39 -36,88 -67,108l40 97c25,-11 41,-18 60,12l38 -16 1 0 0 0c29,-12 47,32 19,45l0 0 -1 0c-76,32 -152,64 -228,96l-3 1 0 0c-27,7 -43,-31 -19,-45l0 0 3 -1 38 -16c-8,-36 8,-41 34,-52l-41 -98c-36,7 -94,0 -118,-30zm-98 -123c-21,17 -32,44 -19,73 12,29 49,46 80,33 6,-2 11,-6 16,-10 -7,-9 -75,-96 -77,-96zm336 -12c6,0 11,-2 16,-4 31,-13 45,-51 33,-80 -12,-30 -41,-42 -69,-37l20 121z"/>
     </g>
     <g>
      <path class="fil2 str1" d="M3856 5278c-7,6 -15,11 -24,14 -48,21 -106,-7 -124,-51 -18,-44 -2,-85 29,-111 -3,-16 2,-32 18,-39l276 -115c15,-7 29,1 38,14 42,-6 87,11 105,56 19,44 -2,104 -51,124 -7,3 -15,6 -23,7 7,39 -35,88 -67,108l41 97c25,-11 41,-18 60,12l38 -16 0 0 0 0c30,-12 48,32 19,45l0 0 0 0c-76,32 -152,64 -228,96l-3 1 -1 0c-27,7 -42,-30 -18,-45l0 0 3 -1 38 -16c-8,-36 7,-41 33,-52l-41 -98c-36,7 -94,0 -118,-30zm-97 -123c-21,17 -32,45 -20,73 12,29 49,46 80,33 6,-2 12,-5 16,-9 -7,-9 -75,-96 -76,-97zm336 -11c5,-1 10,-2 15,-5 32,-13 46,-51 33,-80 -12,-29 -40,-42 -68,-37l20 122z"/>
     </g>
    </g>
    <g>
     <g>
      <path class="fil2 str0" d="M11883 2938c-8,4 -17,7 -27,9 -51,8 -101,-31 -109,-78 -8,-47 18,-84 54,-102 0,-16 9,-31 26,-33l295 -50c17,-2 28,8 34,23 42,3 82,31 90,78 8,48 -27,101 -79,110 -8,1 -16,1 -23,1 -3,40 -55,78 -91,90l17 103c27,-4 44,-7 56,26l41 -7 0 0 0 0c32,-4 39,42 8,48l0 0 0 0c-81,14 -163,27 -244,41l-3 1 0 -1c-28,1 -35,-39 -8,-47l0 -1 3 0 41 -7c0,-36 16,-37 44,-42l-17 -106c-37,-1 -92,-21 -108,-56zm-67 -142c-24,12 -41,36 -36,67 5,31 37,56 71,51 6,-1 12,-3 18,-6 -5,-10 -52,-111 -53,-112zm330 66c5,1 10,1 16,0 34,-6 56,-40 51,-71 -6,-31 -31,-50 -59,-52l-8 123z"/>
     </g>
     <g>
      <path class="fil2 str1" d="M11880 2921c-8,4 -17,7 -27,9 -51,8 -101,-31 -109,-78 -8,-47 18,-84 54,-102 0,-16 9,-30 27,-33l294 -50c17,-2 28,8 34,23 42,4 82,31 90,78 8,48 -27,101 -78,110 -8,1 -16,1 -24,1 -3,40 -55,78 -91,90l18 104c27,-5 44,-8 55,25l41 -7 1 0 0 0c31,-4 39,42 8,48l0 0 -1 0c-81,14 -162,28 -244,41l-3 1 0 -1c-28,1 -35,-39 -8,-47l0 0 3 -1 41 -7c0,-36 16,-37 44,-42l-17 -105c-37,-2 -92,-22 -108,-57zm-67 -141c-24,11 -41,36 -36,66 5,31 37,56 71,51 6,-1 12,-3 18,-6 -5,-10 -52,-111 -53,-111zm330 65c5,1 11,1 16,0 34,-6 56,-40 51,-71 -5,-31 -31,-50 -59,-52l-8 123z"/>
     </g>
    </g>
    <g>
     <g>
      <path class="fil1 str2" d="M7560 4646l41 119 0 0c5,15 5,29 1,41l0 0c-3,10 -9,18 -15,25l0 0c-7,7 -15,12 -24,16 -14,4 -29,5 -44,0l-1 0 -119 -39 -105 78 0 0c-11,9 -24,14 -37,14l0 0c-9,1 -18,-1 -27,-5l0 0c-8,-4 -16,-10 -22,-18 -8,-10 -13,-24 -13,-40l-1 -1 1 -130 -6 -3c-48,-28 -127,-75 -117,-132 9,-56 95,-77 150,-90l0 0 7 -2 39 -124 0 -1c6,-16 15,-27 25,-34 8,-6 17,-10 27,-11 9,-1 18,0 27,3l0 0c12,5 23,13 31,24l0 0 77 107 125 -2 1 0c16,0 30,5 41,13 8,6 15,14 19,22 4,9 7,18 7,29 0,13 -4,26 -13,38l0 0 -75 103z"/>
     </g>
     <g>
      <path class="fil1 str3" d="M7543 4643l41 120 0 0c5,14 5,28 1,41l0 0c-3,9 -8,18 -15,24l0 1c-7,6 -15,12 -24,15 -14,5 -29,5 -44,0l0 0 -120 -39 -105 79 0 0c-11,8 -24,13 -37,14l0 0c-9,0 -18,-2 -27,-6l0 0c-8,-3 -16,-9 -22,-17 -8,-11 -13,-24 -13,-40l0 -2 0 -129 -6 -4c-48,-28 -127,-74 -117,-131 9,-57 95,-78 150,-91l0 0 7 -1 39 -124 0 -2c6,-15 15,-27 25,-34 8,-6 17,-9 27,-10 9,-1 18,0 27,3l0 0c12,4 23,12 31,24l0 0 77 106 125 -2 1 0c16,0 30,6 41,14 8,6 15,13 19,22 4,8 7,18 7,28 0,13 -4,27 -13,39l0 0 -75 102z"/>
     </g>
    </g>
    <g>
     <g>
      <path class="fil2 str0" d="M8886 7338c-9,0 -19,0 -28,-2 -51,-12 -82,-68 -71,-114 10,-47 48,-71 88,-74 6,-15 20,-24 37,-21l292 67c16,4 23,18 22,34 38,19 64,59 53,106 -10,48 -62,84 -113,72 -8,-2 -16,-5 -23,-8 -18,36 -80,51 -118,48l-23 103c26,6 43,9 42,45l40 9 0 0 0 0c31,8 20,54 -11,48l0 0 0 0c-80,-19 -161,-37 -241,-56l-3 0 0 -1c-27,-9 -18,-49 10,-47l1 0 3 1 40 9c14,-33 30,-28 57,-22l24 -104c-33,-16 -76,-55 -78,-93zm-8 -157c-27,2 -52,18 -59,48 -7,30 13,66 46,74 7,1 13,2 19,1 0,-11 -5,-122 -6,-123zm280 187c4,2 10,4 15,5 33,8 67,-15 74,-46 7,-31 -9,-58 -35,-70l-54 111z"/>
     </g>
     <g>
      <path class="fil2 str1" d="M8890 7321c-9,1 -19,0 -28,-2 -51,-12 -82,-68 -72,-114 11,-47 49,-71 89,-74 6,-15 20,-24 37,-20l291 66c17,4 23,18 23,34 38,19 64,60 53,107 -11,47 -62,83 -114,71 -8,-2 -15,-5 -22,-8 -18,36 -81,51 -118,49l-23 102c26,6 43,10 41,45l41 9 0 0 0 0c31,8 20,54 -11,48l0 0 0 0c-81,-19 -161,-37 -241,-55l-4 -1 1 0c-27,-10 -18,-50 10,-47l0 -1 4 1 40 9c14,-33 29,-28 57,-22l24 -104c-34,-15 -77,-54 -78,-93zm-8 -156c-27,1 -52,17 -59,47 -7,31 13,67 46,74 7,2 13,2 19,2 -1,-12 -6,-123 -6,-123zm280 186c4,2 9,4 15,6 33,7 67,-16 74,-47 7,-31 -9,-57 -35,-70l-54 111z"/>
     </g>
    </g>
    <g>
     <g>
      <path class="fil2 str0" d="M6173 2435c-9,1 -18,0 -27,-2 -52,-12 -82,-68 -72,-114 11,-46 48,-71 89,-74 6,-15 20,-24 37,-20l291 66c17,4 23,18 23,34 38,19 64,60 53,107 -11,47 -63,83 -114,71 -8,-2 -15,-4 -22,-8 -18,36 -81,51 -118,49l-24 102c27,6 44,10 42,45l40 9 1 1 0 0c30,7 20,53 -11,47l0 0 -1 0c-80,-18 -160,-37 -240,-55l-4 -1 0 0c-26,-10 -17,-50 11,-47l0 0 3 0 41 9c14,-33 29,-28 57,-22l24 -104c-34,-15 -77,-54 -79,-93zm-7 -156c-27,1 -52,17 -59,47 -7,31 13,67 46,74 6,2 13,2 19,2 -1,-12 -6,-122 -6,-123zm279 186c5,2 10,4 16,6 33,7 66,-16 73,-47 8,-31 -9,-57 -34,-70l-55 111z"/>
     </g>
     <g>
      <path class="fil2 str1" d="M6177 2418c-9,1 -18,0 -28,-2 -51,-12 -82,-67 -71,-114 11,-46 48,-70 89,-73 6,-15 20,-25 37,-21l291 67c16,3 23,17 23,33 37,20 64,60 53,107 -11,47 -63,83 -114,72 -8,-2 -15,-5 -22,-9 -18,36 -81,52 -118,49l-24 103c27,6 44,9 42,44l40 10 1 0 0 0c30,8 20,54 -11,47l0 0 -1 0c-80,-18 -160,-37 -241,-55l-3 -1 0 0c-26,-10 -17,-49 11,-47l0 0 3 1 40 9c15,-34 30,-29 58,-22l24 -105c-34,-15 -77,-54 -79,-93zm-7 -156c-27,1 -52,17 -59,48 -7,30 13,66 46,74 6,1 13,1 19,1 -1,-11 -6,-122 -6,-123zm279 186c5,3 10,5 16,6 33,7 66,-16 73,-46 7,-31 -9,-58 -34,-70l-55 110z"/>
     </g>
    </g>
    <g>
     <g>
      <path class="fil2 str0" d="M2359 7241c-9,1 -18,0 -28,-2 -51,-12 -82,-67 -71,-114 10,-46 48,-71 89,-73 6,-15 20,-25 37,-21l291 67c16,3 23,17 23,33 37,20 63,60 53,107 -11,47 -63,83 -114,71 -8,-1 -16,-4 -23,-8 -17,36 -80,51 -118,49l-23 103c27,6 44,9 42,44l40 10 0 0 0 0c31,7 20,54 -10,47l0 0 -1 0c-80,-18 -161,-37 -241,-55l-3 -1 0 0c-26,-10 -17,-50 11,-47l0 0 3 0 40 10c14,-34 30,-29 58,-23l23 -104c-33,-15 -76,-54 -78,-93zm-8 -156c-27,1 -52,17 -59,48 -7,30 14,66 47,73 6,2 12,2 18,2 0,-12 -5,-122 -6,-123zm280 186c5,3 10,5 15,6 33,7 67,-16 74,-47 7,-30 -9,-57 -34,-69l-55 110z"/>
     </g>
     <g>
      <path class="fil2 str1" d="M2363 7225c-9,0 -19,-1 -28,-3 -51,-11 -82,-67 -71,-114 10,-46 48,-70 88,-73 7,-15 21,-25 37,-21l292 67c16,4 23,18 22,33 38,20 64,60 53,107 -10,47 -62,83 -113,72 -8,-2 -16,-5 -23,-9 -18,36 -80,52 -118,49l-23 103c26,6 43,9 42,45l40 9 0 0 0 0c31,8 20,54 -11,48l0 0 0 -1c-80,-18 -161,-36 -241,-55l-3 0 0 -1c-27,-10 -18,-49 11,-47l0 0 3 1 40 9c14,-33 30,-29 57,-22l24 -104c-33,-16 -76,-55 -78,-93zm-8 -157c-27,1 -52,18 -59,48 -7,30 13,66 46,74 7,1 13,2 19,1 0,-11 -5,-122 -6,-123zm280 186c5,3 10,5 15,6 33,8 67,-15 74,-46 7,-31 -9,-58 -35,-70l-54 110z"/>
     </g>
    </g>
    <g>
     <g>
      <path class="fil1 str2" d="M11513 5983l-27 124 0 0c-3,15 -10,27 -20,36l0 0c-8,6 -17,11 -26,13l0 0c-9,3 -19,3 -29,1 -13,-3 -27,-10 -37,-22l-1 0 -82 -95 -130 13 0 0c-14,1 -28,-1 -39,-7l0 0c-8,-5 -15,-11 -20,-18l0 -1c-6,-7 -9,-16 -10,-26 -2,-13 1,-27 9,-42l1 -1 66 -111 -3 -6c-26,-49 -70,-129 -33,-173 38,-43 122,-17 175,0l0 0 8 2 97 -86 1 -1c13,-10 26,-16 39,-17 10,0 19,1 28,5 8,4 16,10 21,17l0 0c9,10 14,23 15,37l0 0 11 130 109 63 0 1c14,8 23,20 29,33 3,9 5,19 4,28 0,9 -3,19 -8,28 -7,11 -18,20 -32,26l0 0 -116 49z"/>
     </g>
     <g>
      <path class="fil1 str3" d="M11500 5972l-27 124 0 0c-3,15 -11,27 -21,36l0 0c-7,6 -16,11 -25,13l0 0c-9,3 -19,3 -29,1 -13,-3 -27,-10 -38,-22l0 0 -82 -95 -131 13 1 0c-14,1 -28,-1 -39,-7l0 0c-8,-5 -15,-11 -20,-18l-1 -1c-5,-7 -8,-16 -9,-26 -2,-13 1,-27 9,-42l0 -1 67 -111 -3 -6c-27,-49 -70,-129 -33,-173 37,-43 122,-17 175,0l0 0 8 2 97 -86 1 -1c12,-10 26,-16 39,-16 10,-1 19,0 28,4 8,4 15,10 21,17l0 0c8,10 14,23 15,37l0 0 11 130 108 64 1 0c14,8 23,20 28,33 4,9 6,19 5,28 -1,10 -4,19 -9,28 -7,11 -17,21 -31,26l0 0 -116 49z"/>
     </g>
    </g>
   </g>
  </g>
 </g>
</svg>
